<svg width="32" height="37" fill="none" xmlns="http://www.w3.org/2000/svg"><path d="M12.444 22.801a6.907 6.907 0 01-2.252-2.565A6.95 6.95 0 019.44 16.9c.069-.82.36-1.604.843-2.268a4.471 4.471 0 011.891-1.499 25.206 25.206 0 011.913-.765c1.853-.675 3.456-1.27 4.307-3.092.531-1.148.581-1.601-.08-2.578A4.36 4.36 0 0017.221 5.6a3.333 3.333 0 00-1.943-.634.689.689 0 01-.42-.121.857.857 0 01-.17-.161.697.697 0 01-.091-.645c.671-2.014 3.566-2.73 5.269-2.356a4.873 4.873 0 011.682.674c.3.208.561.467.772.766a5.404 5.404 0 012.844-2.87 2.87 2.87 0 012.394.483h.06a3.752 3.752 0 011.703 3.021 6.967 6.967 0 01-2.003 4.623c.62.125 1.212.368 1.743.715.296.2.562.44.79.715.832 1.007 1.754 3.021.662 4.491a.692.692 0 01-.52.272.628.628 0 01-.422-.12l-.12-.101a8.791 8.791 0 00-1.372-1.199 3.844 3.844 0 00-4.868-.06c-1.092.886-1.072 1.793-1.002 3.152.034.645.014 1.292-.06 1.934-.32 2.376-.77 4.451-3.005 5.8-2.534 1.521-4.647.091-6.19-1.006a5.096 5.096 0 01-.43-.272l-.08.1z" fill="#F9B233"/><path d="M12.745 22.167c1.903 1.309 3.685 2.598 5.91 1.269 2.002-1.209 2.383-3.022 2.683-5.288.301-2.265-.54-4.028 1.383-5.539 2.464-2.014 5.208-.785 7.181 1.32.792-1.007.11-2.72-.64-3.596-1.002-1.208-2.164-1.097-3.376-1.57 2.003-1.612 4.157-5.46 1.202-7.433-2.554-1.712-4.077 1.772-5.008 3.605-.09-1.51-1.002-2.245-2.484-2.568-1.483-.322-3.847.312-4.367 1.863a4.429 4.429 0 012.06.557 4.457 4.457 0 011.566 1.458 2.728 2.728 0 01.14 3.273c-1.282 2.78-4.107 3.02-6.561 4.21-4.507 2.114-1.783 8.338 2.174 9.234l-1.864-.795z" fill="#3AAA35"/><path d="M14.217 31.523a3.077 3.077 0 01-1.232-2.015 1.847 1.847 0 01-.821-.332 4.954 4.954 0 01-1.833-3.464 2.693 2.693 0 01.841-2.266.689.689 0 01.832-.08l.81.523.271.181 2.845 1.31a.33.33 0 01.1.06.663.663 0 01.26.312 3.398 3.398 0 003.166-.473 10.485 10.485 0 003.305-5.66c.121-.888.152-1.785.09-2.68a3.75 3.75 0 00-.11-.513c-.27-1.168-.41-2.014.06-2.447a1.299 1.299 0 011.723-.06 6.74 6.74 0 012.154 4.028h.12a4.778 4.778 0 013.405.916 3.486 3.486 0 011.733 2.659.698.698 0 01-.366.632.688.688 0 01-.726-.048l-.1-.08a2.782 2.782 0 00-2.193-.242c-.243.06-.478.148-.701.262 1.001.775 1.873 2.719 1.652 3.605a4.316 4.316 0 01-.94 1.585c-.424.454-.94.81-1.514 1.044a2.203 2.203 0 01-2.093-.171 1.751 1.751 0 01-.19-.212.707.707 0 01.388-1.197.698.698 0 01.493.11h.06a.17.17 0 00.14 0 1.406 1.406 0 00-.45-.424c-.13-.09-.26-.16-.361-.221-.751-.393-1.002-.383-1.563.675-.207.403-.388.82-.54 1.248a4.972 4.972 0 01-2.274 3.022 2.564 2.564 0 01-2.775 0 2.227 2.227 0 01-.48-.443 2.01 2.01 0 01-.9.955 1.994 1.994 0 01-1.294.193 2.187 2.187 0 01-1.002-.373l.01.08z" fill="#F9B233"/><path d="M12.012 24.302c2.094 1.44 5.42 3.444 7.873 1.52a11.331 11.331 0 003.616-6.103c.129-.937.162-1.885.1-2.83 0-.412-.59-2.084-.26-2.406 1.082-1.068 3.425 3.575 2.514 4.854 1.272-2.014 5.429.241 5.439 2.155a3.698 3.698 0 00-2.723-.458 3.715 3.715 0 00-2.285 1.556c1.091-1.28 2.774 2.014 2.574 2.86-.32 1.299-2.434 3.021-3.646 1.903a.789.789 0 001.282-.423c.11-.604-.751-1.148-1.172-1.37-1.242-.664-1.813-.281-2.494.947-.801 1.42-.911 3.162-2.524 4.029-1.613.866-2.755 0-3.005-1.753-.51.886-.31 2.619-2.083 2.407a2.17 2.17 0 01-1.37-1.142 2.195 2.195 0 01-.063-1.788c-1.001 2.014-4.126-2.609-2.193-4.331a12.554 12.554 0 004.006 2.065l-3.586-1.692z" fill="#008D36"/><path d="M4.903 23.466A1.918 1.918 0 013.9 21.915a2.231 2.231 0 01.671-1.551 4.179 4.179 0 01-.661-.373 2.633 2.633 0 01-1.182-1.953 3.772 3.772 0 011.252-2.599c.2-.241.39-.463.52-.654.662-1.007.532-1.138-.05-1.541l-.1-.06c-.8-.514-1.452-.464-2.003.16a.711.711 0 01-.801.212l-.14-.07a.694.694 0 01-.3-.625v-.473c-.043-.6.108-1.196.43-1.702A6.128 6.128 0 013.48 8.672a3.642 3.642 0 014.337.13c.16.111.33.232.501.373.05-.341.005-.69-.13-1.007a2.242 2.242 0 00-.902-1.007 3.816 3.816 0 01-1.101-1.098.678.678 0 010-.634.705.705 0 01.49-.413 4.573 4.573 0 013.757.624 5.92 5.92 0 012.003 2.68l.11-.071a3.306 3.306 0 012.795-.554c.305.103.595.249.861.433a2.387 2.387 0 011.222 2.276.696.696 0 01-.57.564 4.67 4.67 0 01-1.503 0 3.507 3.507 0 00-1.252 0 6.058 6.058 0 00-1.323.564c-.27.14-.52.272-.77.383a5.829 5.829 0 00-2.645 2.84c-.932 1.883-.08 3.696.831 5.62.611 1.308 1.222 2.94.501 4.027a2.114 2.114 0 01-2.003.796 3.843 3.843 0 01-1.883-.624 2.011 2.011 0 01-.762-.897.68.68 0 01-.74.05l-.401-.241v-.02z" fill="#F9B233"/><path d="M8.737 14.442a6.641 6.641 0 013.005-3.162 14.845 14.845 0 012.204-1.007c.941-.232 1.913.201 2.804.06.15-.836-.85-1.681-1.612-1.923-1.202-.383-2.003.503-3.075.946-.771-2.507-2.554-4.24-5.259-3.605.521.856 1.673 1.098 2.064 2.175a2.024 2.024 0 01-.361 2.317c-1.412-1.31-2.724-2.135-4.648-1.007a5.315 5.315 0 00-1.692 1.772c-.451.766-.29 1.068-.34 1.853a2.007 2.007 0 011.393-.767 1.993 1.993 0 011.51.495c1.233.786 1.093 1.49.361 2.588-.53.806-1.732 1.733-1.652 2.8.1 1.249 1.522 1.924 2.584 2.014-1.232 1.007-2.184 2.075-.37 3.022.39-.585 1.071-.232 1.402-.856-1.172 1.299.51 2.165 1.692 2.245 2.555.151 1.473-2.497.852-3.806-.952-1.914-1.923-3.988-.862-6.154z" fill="#008D36"/><path d="M17.032 20.394c.28-.78.28-1.636 0-2.417-.812-1.319-1.763-.07-2.004.877.34-.756-.2-2.287-1.222-2.266-1.762.05-1.001 2.749-.13 3.142-1.002-.866-2.123-.302-2.334.956a2.289 2.289 0 00.595 1.75 2.263 2.263 0 001.69.728 4.335 4.335 0 002.074-.922 4.37 4.37 0 001.33-1.848z" fill="#F9B233"/><path d="M12.684 22.74c-1.122 1.532-2.314 3.082-3.406 4.684l-2.254 3.303c-.43.624-.901 1.652-1.542 1.964a3.585 3.585 0 011.492-1.436 3.56 3.56 0 012.034-.367c1.452.272 3.005 2.417 1.753 3.736 0-1.742-3.005-1.923-4.217-1.55-1.212.372-3.226 2.467-4.007 3.665.621-1.702 1.663-3.363 1.523-5.307a3.789 3.789 0 00-1.324-2.074 3.754 3.754 0 00-2.312-.817c1.001-1.953 5.559.615 4.607 2.488.812-.242 1.823-1.903 2.304-2.588.721-1.007 1.452-2.105 2.214-3.122.57-.765 1.101-1.571 1.642-2.367.541-.795.862-1.007 1.683-.262a1.239 1.239 0 01-.27.453l.08-.402z" fill="#F9B233"/></svg>